<?xml version="1.0" encoding="UTF-8"?>
<svg id="Layer_1" xmlns="http://www.w3.org/2000/svg" version="1.1" viewBox="0 0 397 253">
  <!-- Generator: Adobe Illustrator 29.1.0, SVG Export Plug-In . SVG Version: 2.1.0 Build 142)  -->
  <defs>
    <style>
      .st0 {
        fill: #cbac4a;
        fill-rule: evenodd;
      }
    </style>
  </defs>
  <path class="st0" d="M264.7,202.8c4.2-2.2,8.4-1.8,12.6-3.7,3.1-1.6,5.3-3.5,6.6-6.3-1.3-1.5-1.7-2.7-3.6-3.2-4.8-.4-8.6,3.3-13.4,3.6-4.6.6-9.3,1-13.5-.3.2-.1-.1-.1.2-.2.2-4.9,16-7,17.9-11.9-.7-.9-1.9-1.3-3-2.1-8.1,2.7-16.2,5.4-24.6,8.3-.3-.1-.6.3-.8-.8,2.3-9.8,9.1-10.2,15.5-15-1.9-1.8-2.6-5.2-7.7-4.4-5.6,2.7-7.6,4.6-12.2,7.1-2.4,1.7-8.9,5.4-15.2,5.2-.6.3-.2-.4-.4-1,6.8-7.4,13.6-14.7,20.6-22.3,7.1,2.8,9.9,4.6,13.7,7,12.5,7.9,23.1,17.6,33.2,28,2.5,2.7,4.8,5,6.5,8.9,1.9,3.4,3.1,7.3,1.6,11.4-2.6,3.9-4.4,5.6-11.5,7.9-4.9,1.4-13.1,1.1-15-2.8.5-4.1,3-4.8,3.7-7.7-3.9-1.8-7.8-3.1-11.7-4.8l.3-.6h0Z"/>
  <path class="st0" d="M138.3,182.2c7.7.1,15.4.8,23.3,1,.7-.3,0,.4.4,1.1-2.9,1.7-5.6,3.7-8.7,5.9,1.3,2.9,2.8,6.1,8.4,5.2,5.4-1.5,7.1-3.1,10.5-4.7.2.1.9-.3.6.6-1.1,2.9-2,5.8-3,9-2.9,6.4,1.6,8.5,7.3,8.6,7.9-2,16.1-6.8,23.9-2.6,2.5,1.4,4,3.7,5.6,6.3,1.6,3.4,2.7,8.1,2.9,11.7-3.3-.1-7.5.6-10.4-1.3-1.8-.9-2.7-5.2-4.2-8.7-1.5,1.5-1.8,6.4-3.1,9.1-3.3.8-7.5,1.5-11.7.7-5.2-2.1-7.4-6.2-11.2-9.7-5.1-5.3-10.5-10.2-15.6-15.9-5.3-5.2-10.4-10.6-15.2-16.3h0Z"/>
  <path class="st0" d="M358.1,205.4c-3.6-2-7.1.8-11-.4-4-.9-5.1-2.4-7.4-4.2-1.6,3.1-2.8,6.5-5.9,8.7-.8,0-1.5,0-2.6,0-6.4-1.9-3.3-12.7-1.9-19.1.3-.1-.4-1.2-.9-.2-2.2,2-4.6,3.8-7.4,5.6-5.5,1.6-6.1-2.5-8-5.2,2.7-1.7,5-3.9,6.5-7,2.2-4.4,1.3-8.9-.3-13.3-2.9,3.2-5,7.3-8.7,10.1-1.2,1.6-5.6,2.3-8,.6-2-1.1-3.5-2.6-5.2-4.7,2.9-2.7,6.3-4.7,9-8.1,1.8-2.1,5.7-7,4-13.2h-.8c-2,3.4-4.6,6.1-8,8-2.6,1.5-9.5,5.2-14.3,4.4-2.1-1.2-4.3-2.6-4.6-4.6,1.8-1,6.7-2.7,8.8-3.8,2.2-1.4,4.6-2.3,5.8-4.6,2.9-3.8,5.4-12.7,2.5-18.7,0-.1-.3-.9-.3-.9-1.7,1-1.5,2.1-2.4,3.3-.7,1.3-1.6,2.1-2.1,3.3-1.6,2.3-3.5,3.9-5,6-4.1,3.5-7.6,7.1-12.6,9.5-4.4-.2-4.9-2.6-7.3-3.8-2.1-1.7-3.9-3.4-5.9-4.8-4.3-3.1-8.4-6-13.1-8.3-2-1.3-8.8-3.9-11.4-5.1-1,0-.6-.7-.7-.9,7.6.8,14.8,2.1,22,5.2,6.4,2.8,10.3,5.1,14.7,8.4,5.1-2,8.6-5.6,12.1-9.1,3.5-4.6,5.7-7.2,8.2-14.8,1-4.6,1.1-10.2-1.5-13.7,0-.1-.8-.5-.5.1-5.3,9.3-9.7,18.9-17.5,25.4-13.5-5.3-26.4-10.4-39.2-15.4,0,.1-.6-.9-.6-.9l.3.3c11.4-.4,22.7,2.5,34,6.8,5,1.7,5.5-2.1,6.8-4.2,1.7-3.5,3.6-6.5,5.2-9.8,2.8-4.5,4.8-12.8,4.1-18.7.1-.1-.5-.1-.5-.1-2.6,3.6-5,7.3-7.5,11.3-1.8,2.8-3.5,5.6-5.4,8.6-.4,2.6-4.3,3.5-8.2,1.5-10.6-3.3-21.2-6.1-31.8-9.6l-.3-.2v-.5c9-.9,17.9-.4,26.9,1.8,3.1.4,6.4,2.3,8.9,2.2.6-6.9-2.5-15.9-5-19.4-2.6-4.5-5.9-8.1-8.7-12.1-1.6-1.9-3.9-7.1-5-11.4,1,.2,1.3.2,1.6.2,3.4,3.4,7.5,5.9,11.2,8.6,3,2,10.1,6.4,16.8,4.1,4.1-1.6,5.4-3.6,8.3-5.3,2.5-2.1,9-4.8,14.6-4.5-1.2-5.2-1.9-9.8-2.7-14.5-3.1,2.1-5.6,4.4-8.3,6.4-1.6,1.8-8.2,5.1-11.8,1.8-1.4-1.1-3.2-3.8-2.8-7.3.6-2.2,4.3-2.1,7.1-2.8,3-1.3,6.9-.3,7.8,1.2,2.8-3.9,5.4-7.6,7.7-11.8.8-5.5-2.1-7.2-7.2-6.9.3-.3-1.2-.7-.2-1,1.7-.8,4.7-1.1,5.7-2.1-.3-.7.1-1.4-.5-1.1-11.9-1.3-23.8-2.5-35.7-1.9-9.9,4.6-16.6,8.4-24.8,12.6-4.4,3.2-12.7,3.4-10.4,13.6,1.8,4.1,3.8,5.4,6,8.3-.6,6.4-4.6,12.3-6.2,18.3-2.2,7.4-4.2,10.4-7.2,13.5-3.2,3.4-8.1,5.4-16,7.9-6.8,2.1-13.5,3.3-20.2,3.8-13.8.9-27.3-1-40.9-6.1-9.2-4.2-18.5-4-27.1.3-3.6,3.3-9.7,0-14.3-2,0,.1-.4.1-.4,0-5.7-1.9-11.5-2.1-17.7-.5-9.9,3.2-13.4,7.4-18.1,14.3-2.4,3-5.8,12.6-8.5,20-2,5.7-3.9,11.5-6.2,17.4-3.8,9.8-5.8,13.1-9.8,19.1-1.8,2.4-3.8,4.6-6.2,6.9-1.8,2.1-5.6,3.3-4.7,7.9,2.9,3.3,12,2.4,14.1-.6,4.6-5.4,8.1-11.2,11.5-18.7,3-7.2,5.7-14.5,8.5-22.1,2.1-5.4,4.1-10.8,6.6-16.8,3-7.2,5.6-11.1,10.2-15.5,2.9-5,17.3-4.8,19.9.5-3.2,4.3-4.7,7-7.6,14.6-2,6.6-3.1,13.2-4.2,20.1-.3.6.4.2.7,0,6.9-5.1,10.1-13.9,15.2-21.1.7-.2,0-.9.8-.2-.3,5.1-2,12.6-4.4,15.8-3.6,6.5-8.1,12.2-13.7,17.1-4.1,3.5-8.7,6.4-13.9,9.1-2.9,1.9-11.2,4-12.6,7-1.8,1.4-3.1,7-4.5,11.2-4,13.1-8.8,26.1-12.4,39.8,6.2.2,12.3,0,18.9.1,2.6-.2,6.7,0,8.4-1.6,1.4-1.1,2.2-6.4,3.2-7.7l.6-.3c.9,4.4,2.1,6.7,4.1,8.2,2,1.7,7.2,1.7,9.9.4-1-6.9-3.6-11.9-6.1-14.4-1.7-4.3-10-5.6-14.9-1-4.5,1.6-8.5,2.9-12.5,3.8-1.5-7.8,6.7-5.5,12.3-8.9-2.8-2.4-8.1-2.1-8.6-6.7.9-.9.8-1.7,1.5-1.8,4.6,1.2,8.8,2.9,13,4-2.3-3.7-4.1-7.3-6.4-10.6-.4-.3.3-1.4.5-.5,4.5.6,8.8,1.6,13,2,0,0,.3,0,.3,0,7.8.7,15.6-.3,23.3-3.1,7.6-3.1,11.2-5.2,16.1-8.8,3-2.1,4.9-5.1,11.4-5.5,6.9.6,13.7,1.1,20.5,1.6,9.4.2,18.5,1.5,27.6,0,5.5-.7,11-3.6,13.4-4.9,3.9-2.5,6.9-5.3,9.5-8.6,3.1-4.6,5.4-7,7.5-14.4,2.2-8-4-15.7.8-23.3,1.1-2.9,2.9-5.2,4.6-7.4.9-.3.5.4.6.6v1.3s0,.3,0,.3c.5,10.3,4.2,20.5.2,31.4-3.5,8.9-7.2,13.6-11.8,20.5,1.5.9,2.7,2.1,4.2,2.9,3.5,3.9,7.9-.3,10-2.1,5.2-3.9,9.8-8.6,14.3-13.6,1.7-2.2,3.8-4,5.5-6.1,3.6-2.6,6.6.9,8.9,1.6,19.8,8.9,34.2,23.1,49.9,36.3,7.3,6.9,14.6,13.9,21.7,21.4,3.3,3.8,6.7,7.6,11.4,10,4.9,3.4,13.9,4.4,20.9,3.5.4-2.5,1.5-6,2.8-8.4.9,1.3,1.9,5.7,3.1,6.9,1,2,4.9,1.1,7.6,1.4,1.4-.9,2-1.4,2.8-3.1-3.5-7.3-4.2-11.1-9.7-14.4h0ZM259.5,39.6c4.4-1.3,8.9-2.4,13.3-3.9.3,0,.6,0,.6.3.9,7-8,7.1-13.9,4.9v-1.3h0ZM240.4,48c.2.1.9-.3.5.7-1,3.1-1.5,7.7-3.9,8.5-2.1-.6-2.4-2.4-3.7-4.4.3-3.3,3.3-3.2,7-4.8h0ZM129.3,113.2c-.9,8.4-1.9,16.9-3.3,25.7-.2,5.6-3,13.8-5.3,17.3-3.5,6.1-8.4,10.9-14.5,14.8-4.5,3.4-17.2,7.7-25.7,6.6,0,0-.2-.5.2-.4,1.4-1.3,7-3.2,10.1-4.9,5.1-2.6,9.4-5.9,13.2-10.1,2.8-2.9,5-6.5,6.8-10.2,4.5-8.3,4.9-17.5,7.3-26.5,1.2-3.8,2.8-9.6,4.5-11.8,1.7-2.8,4.1-4.8,7.2-6.8.8,1.1-.6,4.2-.4,6.3h0ZM145,142.4c-2.2,11.1-5.9,15-10.3,19.7h-.3c0,0-.6,0-.6,0v-.3c3.1-8.1,3.4-16.2,4.6-24.3.6-7.8,4-18.3,6.9-21.8,0-.2.6-.2.6-.2-.3,9,.5,17.9-.8,26.9h0ZM158.4,164.4l-.3.4h-.6l-.2-.3c.2-13-5.6-26.2,0-39.2,1.5-2.9,3.2-5.4,5.2-7.6,0,0,.7,0,.8,0,.5,8.3,2.2,16.6,1.9,25.3.5,8.2-3.8,18.4-6.8,21.4h0ZM177.8,164.7h-1.2c-.6-8-1.3-16-2-24.3.1-3.9-.7-7.8-.5-11.9.4-4.9,2.3-7,4-10.8.2.1.9-.3,1,.3,1.5,8.3,3.1,16.6,4.3,25.3,2.1,7.9-1.9,18.4-5.6,21.4h0ZM195,161.2h-1.3c-.9-8.4-1.9-16.9-2.5-25.6-.3-4.1,0-8.2,1.9-12.8,1.5-3.4,2.7-5.5,5.4-8.2.6,7.8.9,16.2,1,24.7,1.7,7.1-.9,18-4.4,21.9h0Z"/>
</svg>